<?xml version="1.0" encoding="utf-8"?>
<!-- Generator: Adobe Illustrator 19.0.0, SVG Export Plug-In . SVG Version: 6.00 Build 0)  -->
<svg version="1.1" id="Capa_1" xmlns="http://www.w3.org/2000/svg" xmlns:xlink="http://www.w3.org/1999/xlink" x="0px" y="0px"
	 viewBox="0 0 227.7 102.3" style="enable-background:new 0 0 227.7 102.3;" xml:space="preserve">
<style type="text/css">
	.st0{fill:#FFFFFF;}
</style>
<g id="XMLID_2_">
	<path id="XMLID_67_" class="st0" d="M60.4,69.5c-10.1,6.5-20.5,6.2-20.5,6.2s-0.3-1.3-0.2-3.6c0.1-2.3,1.4-1.7,2.3-3.5
		c0.3-0.7,0.6-1.1,1.1-2.7c0-0.1-0.6-11.1-0.8-15.8c-0.1-2.5-0.6-6.7-1.1-10.8c-0.3-2.4-1.1-4.3-1.4-6.6c-0.5-3.3-1.1-7.1-1.1-7.1
		c-0.4,1.1-1,5-1.6,9.5c-0.3,2.1-0.6,4.4-0.8,6.5c-0.6,4.5-2,16.5-2.2,17.1c-0.3,1-0.4-0.3-0.4-0.3s0.8-12.6,1.1-18.1
		c0.1-2.7,0.3-5.7,0.7-8.5c0.3-2.1,0.6-4.2,1-6c0,0,1.4-4.4,1.9-4.4c0.5-0.1,2.1,2.7,2.7,5.3c1.3,5.7,2,6.4,3,12.4
		c0.9,5.7,1.8,10.4,1.9,11.2c0.4,2.8,0.2,11.6-0.5,15.1c-0.2,1-0.2,1.3-0.8,1.9c-1.5,1.5-2.5,3.2-2.5,4.4c0,1.2-0.2,1.1,0.1,1.8
		c0,0,1.9,2.9,13-3.7c0,0,3.5-1.8,3.5-5.8V23.5c0,0-11-3.7-19.4-3.7c-8.5,0-19,3.7-19,3.7v40.3c0,2.5,0.4,7.1,3.9,8.7
		c0,0-9.4-3.2-9.4-8.8V20c0,0,14.4-2.6,24.6-2.6c10.2,0,24.8,2.6,24.8,2.6v43.7C64.1,67.5,60.4,69.5,60.4,69.5"/>
	<path id="XMLID_64_" class="st0" d="M197.1,35.7c-1,0.6-2.4,0.8-4.1,0.8c-1.7,0-3-0.5-4-1.6c-0.9-1-1.4-2.5-1.4-4.3
		c0-1.9,0.5-3.4,1.4-4.5c0.9-1.1,2.1-1.6,3.7-1.6c0.7,0,1.3,0.1,1.7,0.2v-4.7h2.6V35.7z M194.5,34.6v-8.4c-0.3-0.1-0.7-0.2-1.2-0.2
		c-2,0-3.1,1.5-3.1,4.4c0,2.9,1,4.4,2.9,4.4C193.8,34.8,194.2,34.8,194.5,34.6"/>
	<path id="XMLID_61_" class="st0" d="M209.1,30.4l-7.1,1c0.2,2.2,1.3,3.2,3.2,3.2c1.1,0,2.1-0.2,2.9-0.6l0.6,1.7
		c-1,0.5-2.3,0.8-3.8,0.8c-1.7,0-3-0.5-4-1.6c-1-1.1-1.4-2.5-1.4-4.5c0-1.9,0.4-3.4,1.3-4.4c0.9-1.1,2.1-1.6,3.6-1.6
		c1.6,0,2.7,0.5,3.5,1.5C208.8,27,209.2,28.5,209.1,30.4 M206.7,29.4c0-2.2-0.8-3.3-2.3-3.3c-0.8,0-1.4,0.3-1.9,1
		c-0.5,0.7-0.7,1.7-0.7,3.1L206.7,29.4z"/>
	<rect id="XMLID_60_" x="72.6" y="41.8" class="st0" width="4.1" height="25.5"/>
	<path id="XMLID_57_" class="st0" d="M95.8,58.2c0,2.8-0.6,5.1-1.9,6.7c-1.4,1.8-3.3,2.7-5.7,2.7c-2.5,0-4.4-0.9-5.7-2.7
		c-1.2-1.7-1.9-3.9-1.9-6.7c0-2.8,0.6-5.1,1.9-6.8c1.4-1.8,3.3-2.7,5.7-2.7c2.5,0,4.4,0.9,5.7,2.7C95.2,53.2,95.8,55.4,95.8,58.2
		 M91.7,58.2c0-4.6-1.2-6.8-3.5-6.8c-2.3,0-3.5,2.3-3.5,6.8c0,4.4,1.2,6.7,3.5,6.7C90.5,64.9,91.7,62.7,91.7,58.2"/>
	<path id="XMLID_56_" class="st0" d="M109.9,62.1c0,1.5-0.6,2.8-1.8,3.9c-1.2,1.1-2.8,1.6-4.7,1.6c-2.1,0-3.8-0.4-5-1.3l1.1-2.6
		c0.9,0.7,2,1,3.4,1c0.8,0,1.5-0.2,2-0.7c0.5-0.5,0.8-1.1,0.8-1.8c0-0.8-0.2-1.4-0.6-1.8c-0.4-0.4-1.1-0.8-2.1-1.2
		c-2.8-1.1-4.2-2.8-4.2-5.1c0-1.5,0.5-2.7,1.6-3.8c1.1-1,2.5-1.5,4.2-1.5c1.8,0,3.4,0.4,4.7,1.3l-1,2.4c-0.8-0.7-1.8-1-2.9-1
		c-0.8,0-1.4,0.2-1.9,0.7c-0.5,0.5-0.7,1-0.7,1.7c0,1.2,0.9,2.2,2.7,2.9C108.5,57.9,109.9,59.7,109.9,62.1"/>
	<path id="XMLID_53_" class="st0" d="M140.4,67.3h-4.8l-1.9-6.5h-8.2l-2,6.5h-4.2l8.4-25.3h4.4L140.4,67.3z M133,58.1l-2.6-8.9
		c-0.4-1.3-0.6-2.3-0.7-3.1h-0.1c-0.1,0.7-0.4,1.7-0.7,3.1l-2.7,8.9H133z"/>
	<path id="XMLID_52_" class="st0" d="M157.4,67.3h-4.1V54.4c0-2-1.1-3-3.3-3c-1,0-2,0.2-2.8,0.5v15.5H143V50.1
		c1.9-0.9,4.3-1.3,7.1-1.3c2.5,0,4.4,0.6,5.7,1.7c1.1,0.9,1.6,2.2,1.6,3.9V67.3z"/>
	<path id="XMLID_49_" class="st0" d="M176,66.4c-1.6,0.9-3.7,1.3-6.4,1.3c-2.7,0-4.8-0.8-6.3-2.4c-1.5-1.6-2.2-3.9-2.2-6.8
		c0-2.9,0.7-5.3,2.2-7c1.4-1.7,3.4-2.5,5.8-2.5c1.1,0,2,0.1,2.7,0.3v-7.4h4.1V66.4z M171.9,64.6V51.5c-0.5-0.2-1.2-0.2-1.8-0.2
		c-3.2,0-4.8,2.3-4.8,6.9c0,4.6,1.5,6.8,4.5,6.8C170.7,65,171.4,64.9,171.9,64.6"/>
	<path id="XMLID_46_" class="st0" d="M194.8,58.1l-11.2,1.6c0.3,3.4,2,5.1,5,5.1c1.8,0,3.3-0.3,4.6-1l1,2.6c-1.6,0.9-3.6,1.3-6,1.3
		c-2.6,0-4.7-0.8-6.2-2.5c-1.5-1.6-2.3-4-2.3-7c0-3,0.7-5.3,2.1-6.9c1.4-1.7,3.3-2.5,5.7-2.5c2.4,0,4.3,0.8,5.5,2.4
		C194.3,52.8,194.9,55.1,194.8,58.1 M190.9,56.5c0-3.5-1.2-5.2-3.6-5.2c-1.3,0-2.2,0.5-2.9,1.5c-0.7,1.1-1.1,2.7-1,4.8L190.9,56.5z"
		/>
	<path id="XMLID_45_" class="st0" d="M209,62.1c0,1.5-0.6,2.8-1.8,3.9c-1.2,1.1-2.8,1.6-4.7,1.6c-2.1,0-3.8-0.4-5-1.3l1.1-2.6
		c0.9,0.7,2,1,3.4,1c0.8,0,1.5-0.2,2-0.7c0.5-0.5,0.8-1.1,0.8-1.8c0-0.8-0.2-1.4-0.6-1.8c-0.4-0.4-1.1-0.8-2.1-1.2
		c-2.8-1.1-4.2-2.8-4.2-5.1c0-1.5,0.5-2.7,1.6-3.8c1.1-1,2.5-1.5,4.2-1.5c1.8,0,3.4,0.4,4.7,1.3l-1,2.4c-0.8-0.7-1.8-1-2.9-1
		c-0.8,0-1.4,0.2-1.9,0.7c-0.5,0.5-0.7,1-0.7,1.7c0,1.2,0.9,2.2,2.7,2.9C207.5,57.9,209,59.7,209,62.1"/>
	<path id="XMLID_44_" class="st0" d="M94.4,36.4h-2.6v-8.2c0-1.3-0.7-1.9-2.1-1.9c-0.7,0-1.3,0.1-1.8,0.3v9.9h-2.6v-11
		c1.2-0.6,2.7-0.8,4.5-0.8c1.6,0,2.8,0.4,3.6,1.1c0.7,0.6,1,1.4,1,2.5V36.4z"/>
	<path id="XMLID_41_" class="st0" d="M100.1,21.4c0,0.4-0.1,0.7-0.4,0.9c-0.3,0.3-0.6,0.4-1,0.4c-0.4,0-0.7-0.1-1-0.4
		c-0.3-0.3-0.4-0.6-0.4-0.9c0-0.4,0.1-0.7,0.4-0.9c0.3-0.3,0.6-0.4,1-0.4c0.4,0,0.7,0.1,1,0.4C99.9,20.7,100.1,21,100.1,21.4
		 M99.9,36.4h-2.6V24.7h2.6V36.4z"/>
	<path id="XMLID_40_" class="st0" d="M111.9,24.7l-3.7,11.6h-2.5l-3.8-11.6h2.8l2.1,7.5c0.2,0.6,0.3,1.1,0.3,1.6h0
		c0.1-0.4,0.2-0.9,0.3-1.6l2.1-7.5H111.9z"/>
	<path id="XMLID_37_" class="st0" d="M122.9,30.5l-7.1,1c0.2,2.2,1.3,3.2,3.2,3.2c1.1,0,2.1-0.2,2.9-0.6l0.6,1.7
		c-1,0.5-2.3,0.8-3.8,0.8c-1.7,0-3-0.5-4-1.6c-1-1-1.4-2.5-1.4-4.5c0-1.9,0.4-3.4,1.3-4.4c0.9-1.1,2.1-1.6,3.6-1.6
		c1.6,0,2.7,0.5,3.5,1.5C122.6,27,123,28.5,122.9,30.5 M120.5,29.4c0-2.2-0.8-3.3-2.3-3.3c-0.8,0-1.4,0.3-1.9,1
		c-0.5,0.7-0.7,1.7-0.7,3.1L120.5,29.4z"/>
	<path id="XMLID_36_" class="st0" d="M130.9,24.5l-0.5,1.9c-0.4-0.1-0.8-0.2-1.2-0.2c-0.5,0-0.9,0.1-1.3,0.3v9.8h-2.6v-11
		C126.6,24.7,128.5,24.4,130.9,24.5"/>
	<path id="XMLID_35_" class="st0" d="M139.3,33c0,1-0.4,1.8-1.1,2.5c-0.8,0.7-1.8,1-3,1c-1.3,0-2.4-0.3-3.2-0.8l0.7-1.7
		c0.6,0.4,1.3,0.7,2.2,0.7c0.5,0,1-0.2,1.3-0.5c0.3-0.3,0.5-0.7,0.5-1.2c0-0.5-0.1-0.9-0.4-1.2c-0.3-0.3-0.7-0.5-1.3-0.8
		c-1.8-0.7-2.7-1.8-2.7-3.3c0-1,0.3-1.7,1-2.4c0.7-0.6,1.6-1,2.7-1c1.2,0,2.2,0.3,3,0.8l-0.6,1.5c-0.5-0.4-1.1-0.6-1.9-0.6
		c-0.5,0-0.9,0.1-1.2,0.4c-0.3,0.3-0.4,0.7-0.4,1.1c0,0.8,0.6,1.4,1.7,1.8C138.4,30.3,139.3,31.5,139.3,33"/>
	<path id="XMLID_32_" class="st0" d="M144.5,21.4c0,0.4-0.1,0.7-0.4,0.9c-0.3,0.3-0.6,0.4-1,0.4c-0.4,0-0.7-0.1-1-0.4
		c-0.3-0.3-0.4-0.6-0.4-0.9c0-0.4,0.1-0.7,0.4-0.9c0.3-0.3,0.6-0.4,1-0.4c0.4,0,0.7,0.1,1,0.4C144.3,20.7,144.5,21,144.5,21.4
		 M144.3,36.4h-2.6V24.7h2.6V36.4z"/>
	<path id="XMLID_29_" class="st0" d="M156.3,35.7c-1,0.6-2.4,0.8-4.1,0.8c-1.7,0-3-0.5-4-1.6c-0.9-1-1.4-2.5-1.4-4.3
		c0-1.9,0.5-3.4,1.4-4.5c0.9-1.1,2.1-1.6,3.7-1.6c0.7,0,1.3,0.1,1.7,0.2v-4.7h2.6V35.7z M153.7,34.6v-8.4c-0.3-0.1-0.7-0.2-1.2-0.2
		c-2,0-3.1,1.5-3.1,4.4c0,2.9,1,4.4,2.9,4.4C152.9,34.9,153.4,34.8,153.7,34.6"/>
	<path id="XMLID_26_" class="st0" d="M167.5,35.7c-1,0.6-2.5,0.8-4.2,0.8c-3.2,0-4.7-1.2-4.7-3.5c0-1.4,0.6-2.5,1.9-3.2
		c1-0.5,2.5-0.9,4.6-1.1v-0.6c0-1.3-0.8-1.9-2.3-1.9c-1,0-1.9,0.2-2.9,0.7l-0.6-1.5c1.2-0.6,2.5-0.9,4-0.9c2.9,0,4.3,1.3,4.3,4V35.7
		z M165,34.8V30c-1.4,0.2-2.4,0.4-2.9,0.8c-0.7,0.4-1.1,1.2-1.1,2.2c0,1.4,0.8,2.2,2.4,2.2C164.1,35.1,164.6,35,165,34.8"/>
	<path id="XMLID_23_" class="st0" d="M179.3,35.7c-1,0.6-2.4,0.8-4.1,0.8c-1.7,0-3-0.5-4-1.6c-0.9-1-1.4-2.5-1.4-4.3
		c0-1.9,0.5-3.4,1.4-4.5c0.9-1.1,2.1-1.6,3.7-1.6c0.7,0,1.3,0.1,1.7,0.2v-4.7h2.6V35.7z M176.7,34.6v-8.4c-0.3-0.1-0.7-0.2-1.2-0.2
		c-2,0-3.1,1.5-3.1,4.4c0,2.9,1,4.4,2.9,4.4C176,34.9,176.4,34.8,176.7,34.6"/>
	<path id="XMLID_22_" class="st0" d="M72.6,20.2h2.8v12.5c0,1.4,0.7,2.1,2.2,2.1c0.7,0,1.3-0.1,1.9-0.3V20.2h2.8v15.4
		c-1.3,0.6-2.9,0.9-4.8,0.9c-1.7,0-3-0.4-3.8-1.1c-0.7-0.6-1.1-1.5-1.1-2.6V20.2z"/>
	<path id="XMLID_21_" class="st0" d="M154.9,91.5c-0.6,0.4-1.4,0.7-2.4,0.7c-1.5,0-2.7-0.6-3.5-1.9c-0.7-1.1-1-2.4-1-4.1
		c0-1.6,0.3-3,1-4.1c0.8-1.3,2-2,3.5-2c1,0,1.8,0.2,2.4,0.7l-0.5,1.3c-0.5-0.3-1-0.4-1.5-0.4c-1,0-1.7,0.5-2.2,1.6
		c-0.3,0.8-0.5,1.7-0.5,2.9c0,1.1,0.2,2.1,0.5,2.8c0.5,1,1.2,1.6,2.2,1.6c0.6,0,1.1-0.1,1.5-0.4L154.9,91.5z"/>
	<path id="XMLID_18_" class="st0" d="M162.7,87.8c0,1.2-0.3,2.2-0.8,3c-0.6,0.9-1.5,1.3-2.7,1.3c-1.2,0-2.1-0.4-2.7-1.3
		c-0.5-0.8-0.8-1.8-0.8-3c0-1.2,0.3-2.3,0.8-3c0.6-0.9,1.5-1.3,2.7-1.3c1.2,0,2.1,0.4,2.7,1.3C162.4,85.5,162.7,86.5,162.7,87.8
		 M160.8,87.8c0-2.1-0.5-3.1-1.6-3.1c-1.1,0-1.6,1-1.6,3.1c0,2,0.5,3.1,1.6,3.1C160.3,90.8,160.8,89.8,160.8,87.8"/>
	<rect id="XMLID_17_" x="164.5" y="80.2" class="st0" width="1.9" height="11.8"/>
	<path id="XMLID_14_" class="st0" d="M175.1,87.8c0,1.2-0.3,2.2-0.8,3c-0.6,0.9-1.5,1.3-2.7,1.3s-2.1-0.4-2.7-1.3
		c-0.5-0.8-0.8-1.8-0.8-3c0-1.2,0.3-2.3,0.8-3c0.6-0.9,1.5-1.3,2.7-1.3c1.2,0,2.1,0.4,2.7,1.3C174.9,85.5,175.1,86.5,175.1,87.8
		 M173.3,87.8c0-2.1-0.5-3.1-1.6-3.1c-1.1,0-1.6,1-1.6,3.1c0,2,0.5,3.1,1.6,3.1C172.7,90.8,173.3,89.8,173.3,87.8"/>
	<path id="XMLID_13_" class="st0" d="M188.2,92h-1.9v-6c0-0.9-0.5-1.4-1.4-1.4c-0.5,0-1,0.2-1.4,0.6V92h-1.9v-6
		c0-0.9-0.5-1.3-1.6-1.3c-0.5,0-0.9,0.1-1.2,0.2V92h-1.9V84c0.8-0.4,1.9-0.6,3.1-0.6c1.2,0,2.1,0.3,2.6,0.9c0.7-0.6,1.6-0.9,2.7-0.9
		c0.8,0,1.5,0.2,2.1,0.7c0.5,0.4,0.8,1.1,0.8,1.9V92z"/>
	<path id="XMLID_10_" class="st0" d="M197,87.6c0,1.4-0.3,2.5-1,3.3c-0.7,0.9-1.7,1.3-3.1,1.3c-1.2,0-2.1-0.2-2.8-0.6V80.2h1.9v3.6
		c0.5-0.2,1-0.3,1.7-0.3c1.1,0,1.9,0.4,2.5,1.3C196.8,85.5,197,86.4,197,87.6 M195.2,87.7c0-2.1-0.6-3.1-1.9-3.1
		c-0.5,0-0.8,0.1-1.1,0.3v6c0.3,0.1,0.6,0.2,1,0.2C194.5,91,195.2,89.9,195.2,87.7"/>
	<path id="XMLID_7_" class="st0" d="M200.8,81.2c0,0.3-0.1,0.5-0.3,0.7c-0.2,0.2-0.5,0.3-0.7,0.3c-0.3,0-0.5-0.1-0.7-0.3
		c-0.2-0.2-0.3-0.4-0.3-0.7c0-0.3,0.1-0.5,0.3-0.7c0.2-0.2,0.5-0.3,0.7-0.3c0.3,0,0.5,0.1,0.7,0.3C200.7,80.7,200.8,80.9,200.8,81.2
		 M200.7,92h-1.9v-8.4h1.9V92z"/>
	<path id="XMLID_4_" class="st0" d="M208.9,91.5c-0.8,0.4-1.8,0.6-3,0.6c-2.3,0-3.4-0.9-3.4-2.6c0-1.1,0.5-1.9,1.6-2.4
		c0.7-0.3,1.7-0.5,3.1-0.7V86c0-0.9-0.6-1.4-1.7-1.4c-0.7,0-1.4,0.2-2.1,0.5l-0.4-1.1c0.9-0.4,1.8-0.6,2.9-0.6c2.1,0,3.1,1,3.1,2.9
		V91.5z M207.1,90.8v-3.5c-0.9,0.1-1.6,0.3-2,0.5c-0.6,0.3-0.9,0.9-0.9,1.7c0,1,0.6,1.6,1.8,1.6C206.4,91.1,206.8,91,207.1,90.8"/>
</g>
</svg>
