<?xml version="1.0" encoding="utf-8"?>
<!-- Generator: Adobe Illustrator 19.0.0, SVG Export Plug-In . SVG Version: 6.00 Build 0)  -->
<svg version="1.1" id="Capa_1" xmlns="http://www.w3.org/2000/svg" xmlns:xlink="http://www.w3.org/1999/xlink" x="0px" y="0px"
	 viewBox="-185 362.2 324.5 78" style="enable-background:new -185 362.2 324.5 78;" xml:space="preserve">
<style type="text/css">
	.st0{fill:#FFFFFF;}
	.st1{fill:none;stroke:#FFFFFF;stroke-miterlimit:10;}
</style>
<g id="XMLID_2_">
	<path id="XMLID_67_" class="st0" d="M-142,411.3c-6.6,4.3-13.4,4.1-13.4,4.1s-0.2-0.9-0.1-2.4c0.1-1.5,0.9-1.1,1.5-2.3
		c0.2-0.5,0.4-0.7,0.7-1.8c0-0.1-0.4-7.3-0.5-10.3c-0.1-1.6-0.4-4.4-0.7-7.1c-0.2-1.6-0.7-2.8-0.9-4.3c-0.3-2.2-0.7-4.7-0.7-4.7
		c-0.3,0.7-0.7,3.3-1,6.2c-0.2,1.4-0.4,2.9-0.5,4.3c-0.4,2.9-1.3,10.8-1.4,11.2c-0.2,0.7-0.3-0.2-0.3-0.2s0.5-8.3,0.7-11.9
		c0.1-1.8,0.2-3.7,0.5-5.6c0.2-1.4,0.4-2.8,0.7-3.9c0,0,0.9-2.9,1.2-2.9c0.3-0.1,1.4,1.8,1.8,3.5c0.9,3.7,1.3,4.2,2,8.1
		c0.6,3.7,1.2,6.8,1.2,7.3c0.3,1.8,0.1,7.6-0.3,9.9c-0.1,0.7-0.1,0.9-0.5,1.2c-1,1-1.6,2.1-1.6,2.9s-0.1,0.7,0.1,1.2
		c0,0,1.2,1.9,8.5-2.4c0,0,2.3-1.2,2.3-3.8v-26.5c0,0-7.2-2.4-12.7-2.4c-5.6,0-12.4,2.4-12.4,2.4v26.4c0,1.6,0.3,4.7,2.6,5.7
		c0,0-6.2-2.1-6.2-5.8v-28.6c0,0,9.4-1.7,16.1-1.7c6.7,0,16.2,1.7,16.2,1.7v28.6C-139.6,410-142,411.3-142,411.3"/>
	<path id="XMLID_64_" class="st0" d="M-52.5,389.1c-0.7,0.4-1.6,0.5-2.7,0.5c-1.1,0-2-0.3-2.6-1c-0.6-0.7-0.9-1.6-0.9-2.8
		c0-1.2,0.3-2.2,0.9-2.9s1.4-1,2.4-1c0.5,0,0.9,0.1,1.1,0.1v-3.1h1.7L-52.5,389.1L-52.5,389.1z M-54.2,388.4v-5.5
		c-0.2-0.1-0.5-0.1-0.8-0.1c-1.3,0-2,1-2,2.9c0,1.9,0.7,2.9,1.9,2.9C-54.6,388.5-54.4,388.5-54.2,388.4"/>
	<path id="XMLID_61_" class="st0" d="M-44.6,385.7l-4.7,0.7c0.1,1.4,0.9,2.1,2.1,2.1c0.7,0,1.4-0.1,1.9-0.4l0.4,1.1
		c-0.7,0.3-1.5,0.5-2.5,0.5c-1.1,0-2-0.3-2.6-1s-0.9-1.6-0.9-2.9c0-1.2,0.3-2.2,0.9-2.9c0.6-0.7,1.4-1,2.4-1c1,0,1.8,0.3,2.3,1
		C-44.8,383.4-44.5,384.4-44.6,385.7 M-46.2,385c0-1.4-0.5-2.2-1.5-2.2c-0.5,0-0.9,0.2-1.2,0.7c-0.3,0.5-0.5,1.1-0.5,2L-46.2,385z"
		/>
	<rect id="XMLID_60_" x="-134" y="393.1" class="st0" width="2.7" height="16.7"/>
	<path id="XMLID_57_" class="st0" d="M-118.8,403.9c0,1.8-0.4,3.3-1.2,4.4c-0.9,1.2-2.2,1.8-3.7,1.8c-1.6,0-2.9-0.6-3.7-1.8
		c-0.8-1.1-1.2-2.6-1.2-4.4s0.4-3.3,1.2-4.5c0.9-1.2,2.2-1.8,3.7-1.8c1.6,0,2.9,0.6,3.7,1.8C-119.2,400.6-118.8,402-118.8,403.9
		 M-121.5,403.9c0-3-0.8-4.5-2.3-4.5c-1.5,0-2.3,1.5-2.3,4.5c0,2.9,0.8,4.4,2.3,4.4C-122.3,408.3-121.5,406.8-121.5,403.9"/>
	<path id="XMLID_56_" class="st0" d="M-109.6,406.4c0,1-0.4,1.8-1.2,2.6c-0.8,0.7-1.8,1-3.1,1c-1.4,0-2.5-0.3-3.3-0.9l0.7-1.7
		c0.6,0.5,1.3,0.7,2.2,0.7c0.5,0,1-0.1,1.3-0.5s0.5-0.7,0.5-1.2c0-0.5-0.1-0.9-0.4-1.2s-0.7-0.5-1.4-0.8c-1.8-0.7-2.8-1.8-2.8-3.3
		c0-1,0.3-1.8,1-2.5c0.7-0.7,1.6-1,2.8-1c1.2,0,2.2,0.3,3.1,0.9l-0.7,1.6c-0.5-0.5-1.2-0.7-1.9-0.7c-0.5,0-0.9,0.1-1.2,0.5
		c-0.3,0.3-0.5,0.7-0.5,1.1c0,0.8,0.6,1.4,1.8,1.9C-110.5,403.7-109.6,404.8-109.6,406.4"/>
	<path id="XMLID_53_" class="st0" d="M-89.6,409.8h-3.1l-1.2-4.3h-5.4l-1.3,4.3h-2.8l5.5-16.6h2.9L-89.6,409.8z M-94.4,403.8
		l-1.7-5.8c-0.3-0.9-0.4-1.5-0.5-2h-0.1c-0.1,0.5-0.3,1.1-0.5,2l-1.8,5.8H-94.4z"/>
	<path id="XMLID_52_" class="st0" d="M-78.5,409.8h-2.7v-8.4c0-1.3-0.7-2-2.2-2c-0.7,0-1.3,0.1-1.8,0.3v10.2h-2.8v-11.3
		c1.2-0.6,2.8-0.9,4.7-0.9c1.6,0,2.9,0.4,3.7,1.1c0.7,0.6,1,1.4,1,2.6L-78.5,409.8L-78.5,409.8z"/>
	<path id="XMLID_49_" class="st0" d="M-66.3,409.2c-1,0.6-2.4,0.9-4.2,0.9s-3.1-0.5-4.1-1.6c-1-1-1.4-2.6-1.4-4.5
		c0-1.9,0.5-3.5,1.4-4.6c0.9-1.1,2.2-1.6,3.8-1.6c0.7,0,1.3,0.1,1.8,0.2v-4.8h2.7L-66.3,409.2L-66.3,409.2z M-69,408.1v-8.6
		c-0.3-0.1-0.8-0.1-1.2-0.1c-2.1,0-3.1,1.5-3.1,4.5c0,3,1,4.5,2.9,4.5C-69.7,408.3-69.3,408.3-69,408.1"/>
	<path id="XMLID_46_" class="st0" d="M-54,403.8l-7.3,1c0.2,2.2,1.3,3.3,3.3,3.3c1.2,0,2.2-0.2,3-0.7l0.7,1.7
		c-1,0.6-2.4,0.9-3.9,0.9c-1.7,0-3.1-0.5-4.1-1.6c-1-1-1.5-2.6-1.5-4.6s0.5-3.5,1.4-4.5c0.9-1.1,2.2-1.6,3.7-1.6s2.8,0.5,3.6,1.6
		C-54.3,400.3-53.9,401.8-54,403.8 M-56.5,402.7c0-2.3-0.8-3.4-2.4-3.4c-0.9,0-1.4,0.3-1.9,1c-0.5,0.7-0.7,1.8-0.7,3.1L-56.5,402.7z
		"/>
	<path id="XMLID_45_" class="st0" d="M-44.7,406.4c0,1-0.4,1.8-1.2,2.6c-0.8,0.7-1.8,1-3.1,1c-1.4,0-2.5-0.3-3.3-0.9l0.7-1.7
		c0.6,0.5,1.3,0.7,2.2,0.7c0.5,0,1-0.1,1.3-0.5c0.3-0.3,0.5-0.7,0.5-1.2c0-0.5-0.1-0.9-0.4-1.2c-0.3-0.3-0.7-0.5-1.4-0.8
		c-1.8-0.7-2.8-1.8-2.8-3.3c0-1,0.3-1.8,1-2.5c0.7-0.7,1.6-1,2.8-1c1.2,0,2.2,0.3,3.1,0.9l-0.7,1.6c-0.5-0.5-1.2-0.7-1.9-0.7
		c-0.5,0-0.9,0.1-1.2,0.5c-0.3,0.3-0.5,0.7-0.5,1.1c0,0.8,0.6,1.4,1.8,1.9C-45.6,403.7-44.7,404.8-44.7,406.4"/>
	<path id="XMLID_44_" class="st0" d="M-119.7,389.6h-1.7v-5.4c0-0.9-0.5-1.2-1.4-1.2c-0.5,0-0.9,0.1-1.2,0.2v6.5h-1.7v-7.2
		c0.8-0.4,1.8-0.5,2.9-0.5c1,0,1.8,0.3,2.4,0.7c0.5,0.4,0.7,0.9,0.7,1.6V389.6z"/>
	<path id="XMLID_41_" class="st0" d="M-116,379.8c0,0.3-0.1,0.5-0.3,0.6c-0.2,0.2-0.4,0.3-0.7,0.3s-0.5-0.1-0.7-0.3
		c-0.2-0.2-0.3-0.4-0.3-0.6c0-0.3,0.1-0.5,0.3-0.6c0.2-0.2,0.4-0.3,0.7-0.3s0.5,0.1,0.7,0.3C-116.1,379.3-116,379.5-116,379.8
		 M-116.1,389.6h-1.7v-7.7h1.7V389.6z"/>
	<path id="XMLID_40_" class="st0" d="M-108.3,381.9l-2.4,7.6h-1.6l-2.5-7.6h1.8l1.4,4.9c0.1,0.4,0.2,0.7,0.2,1l0,0
		c0.1-0.3,0.1-0.6,0.2-1l1.4-4.9C-109.8,381.9-108.3,381.9-108.3,381.9z"/>
	<path id="XMLID_37_" class="st0" d="M-101.1,385.7l-4.7,0.7c0.1,1.4,0.9,2.1,2.1,2.1c0.7,0,1.4-0.1,1.9-0.4l0.4,1.1
		c-0.7,0.3-1.5,0.5-2.5,0.5c-1.1,0-2-0.3-2.6-1c-0.7-0.7-0.9-1.6-0.9-2.9c0-1.2,0.3-2.2,0.9-2.9c0.6-0.7,1.4-1,2.4-1
		c1,0,1.8,0.3,2.3,1C-101.3,383.4-101,384.4-101.1,385.7 M-102.6,385c0-1.4-0.5-2.2-1.5-2.2c-0.5,0-0.9,0.2-1.2,0.7s-0.5,1.1-0.5,2
		L-102.6,385z"/>
	<path id="XMLID_36_" class="st0" d="M-95.8,381.8l-0.3,1.2c-0.3-0.1-0.5-0.1-0.8-0.1c-0.3,0-0.6,0.1-0.9,0.2v6.4h-1.7v-7.2
		C-98.6,381.9-97.4,381.7-95.8,381.8"/>
	<path id="XMLID_35_" class="st0" d="M-90.3,387.4c0,0.7-0.3,1.2-0.7,1.6c-0.5,0.5-1.2,0.7-2,0.7c-0.9,0-1.6-0.2-2.1-0.5l0.5-1.1
		c0.4,0.3,0.9,0.5,1.4,0.5c0.3,0,0.7-0.1,0.9-0.3c0.2-0.2,0.3-0.5,0.3-0.8s-0.1-0.6-0.3-0.8s-0.5-0.3-0.9-0.5
		c-1.2-0.5-1.8-1.2-1.8-2.2c0-0.7,0.2-1.1,0.7-1.6c0.5-0.4,1-0.7,1.8-0.7c0.8,0,1.4,0.2,2,0.5l-0.4,1c-0.3-0.3-0.7-0.4-1.2-0.4
		c-0.3,0-0.6,0.1-0.8,0.3c-0.2,0.2-0.3,0.5-0.3,0.7c0,0.5,0.4,0.9,1.1,1.2C-90.9,385.6-90.3,386.4-90.3,387.4"/>
	<path id="XMLID_32_" class="st0" d="M-86.9,379.8c0,0.3-0.1,0.5-0.3,0.6c-0.2,0.2-0.4,0.3-0.7,0.3c-0.3,0-0.5-0.1-0.7-0.3
		c-0.2-0.2-0.3-0.4-0.3-0.6c0-0.3,0.1-0.5,0.3-0.6c0.2-0.2,0.4-0.3,0.7-0.3c0.3,0,0.5,0.1,0.7,0.3C-87,379.3-86.9,379.5-86.9,379.8
		 M-87,389.6h-1.7v-7.7h1.7V389.6z"/>
	<path id="XMLID_29_" class="st0" d="M-79.2,389.1c-0.7,0.4-1.6,0.5-2.7,0.5c-1.1,0-2-0.3-2.6-1c-0.6-0.7-0.9-1.6-0.9-2.8
		c0-1.2,0.3-2.2,0.9-2.9c0.6-0.7,1.4-1,2.4-1c0.5,0,0.9,0.1,1.1,0.1v-3.1h1.7L-79.2,389.1L-79.2,389.1z M-80.9,388.4v-5.5
		c-0.2-0.1-0.5-0.1-0.8-0.1c-1.3,0-2,1-2,2.9c0,1.9,0.7,2.9,1.9,2.9C-81.4,388.6-81.1,388.5-80.9,388.4"/>
	<path id="XMLID_26_" class="st0" d="M-71.8,389.1c-0.7,0.4-1.6,0.5-2.8,0.5c-2.1,0-3.1-0.8-3.1-2.3c0-0.9,0.4-1.6,1.2-2.1
		c0.7-0.3,1.6-0.6,3-0.7v-0.4c0-0.9-0.5-1.2-1.5-1.2c-0.7,0-1.2,0.1-1.9,0.5l-0.4-1c0.8-0.4,1.6-0.6,2.6-0.6c1.9,0,2.8,0.9,2.8,2.6
		L-71.8,389.1L-71.8,389.1z M-73.5,388.5v-3.1c-0.9,0.1-1.6,0.3-1.9,0.5c-0.5,0.3-0.7,0.8-0.7,1.4c0,0.9,0.5,1.4,1.6,1.4
		C-74.1,388.7-73.7,388.7-73.5,388.5"/>
	<path id="XMLID_23_" class="st0" d="M-64.1,389.1c-0.7,0.4-1.6,0.5-2.7,0.5c-1.1,0-2-0.3-2.6-1c-0.6-0.7-0.9-1.6-0.9-2.8
		c0-1.2,0.3-2.2,0.9-2.9c0.6-0.7,1.4-1,2.4-1c0.5,0,0.9,0.1,1.1,0.1v-3.1h1.7L-64.1,389.1L-64.1,389.1z M-65.8,388.4v-5.5
		c-0.2-0.1-0.5-0.1-0.8-0.1c-1.3,0-2,1-2,2.9c0,1.9,0.7,2.9,1.9,2.9C-66.3,388.6-66,388.5-65.8,388.4"/>
	<path id="XMLID_22_" class="st0" d="M-134,379h1.8v8.2c0,0.9,0.5,1.4,1.4,1.4c0.5,0,0.9-0.1,1.2-0.2V379h1.8v10.1
		c-0.9,0.4-1.9,0.6-3.1,0.6c-1.1,0-2-0.3-2.5-0.7c-0.5-0.4-0.7-1-0.7-1.7V379z"/>
	<path id="XMLID_21_" class="st0" d="M-80.1,425.7c-0.4,0.3-0.9,0.5-1.6,0.5c-1,0-1.8-0.4-2.3-1.2c-0.5-0.7-0.7-1.6-0.7-2.7
		c0-1,0.2-2,0.7-2.7c0.5-0.9,1.3-1.3,2.3-1.3c0.7,0,1.2,0.1,1.6,0.5l-0.3,0.9c-0.3-0.2-0.7-0.3-1-0.3c-0.7,0-1.1,0.3-1.4,1
		c-0.2,0.5-0.3,1.1-0.3,1.9c0,0.7,0.1,1.4,0.3,1.8c0.3,0.7,0.8,1,1.4,1c0.4,0,0.7-0.1,1-0.3L-80.1,425.7z"/>
	<path id="XMLID_18_" class="st0" d="M-75,423.3c0,0.8-0.2,1.4-0.5,2c-0.4,0.6-1,0.9-1.8,0.9s-1.4-0.3-1.8-0.9
		c-0.3-0.5-0.5-1.2-0.5-2s0.2-1.5,0.5-2c0.4-0.6,1-0.9,1.8-0.9s1.4,0.3,1.8,0.9C-75.2,421.7-75,422.4-75,423.3 M-76.2,423.3
		c0-1.4-0.3-2-1-2c-0.7,0-1,0.7-1,2c0,1.3,0.3,2,1,2C-76.6,425.2-76.2,424.6-76.2,423.3"/>
	<rect id="XMLID_17_" x="-73.8" y="418.3" class="st0" width="1.2" height="7.7"/>
	<path id="XMLID_14_" class="st0" d="M-66.9,423.3c0,0.8-0.2,1.4-0.5,2c-0.4,0.6-1,0.9-1.8,0.9s-1.4-0.3-1.8-0.9
		c-0.3-0.5-0.5-1.2-0.5-2s0.2-1.5,0.5-2c0.4-0.6,1-0.9,1.8-0.9s1.4,0.3,1.8,0.9C-67,421.7-66.9,422.4-66.9,423.3 M-68,423.3
		c0-1.4-0.3-2-1-2c-0.7,0-1,0.7-1,2c0,1.3,0.3,2,1,2C-68.4,425.2-68,424.6-68,423.3"/>
	<path id="XMLID_13_" class="st0" d="M-58.3,426h-1.2v-3.9c0-0.6-0.3-0.9-0.9-0.9c-0.3,0-0.7,0.1-0.9,0.4v4.5h-1.2v-3.9
		c0-0.6-0.3-0.9-1-0.9c-0.3,0-0.6,0.1-0.8,0.1v4.7h-1.2v-5.2c0.5-0.3,1.2-0.4,2-0.4c0.8,0,1.4,0.2,1.7,0.6c0.5-0.4,1-0.6,1.8-0.6
		c0.5,0,1,0.1,1.4,0.5c0.3,0.3,0.5,0.7,0.5,1.2L-58.3,426L-58.3,426z"/>
	<path id="XMLID_10_" class="st0" d="M-52.5,423.1c0,0.9-0.2,1.6-0.7,2.2c-0.5,0.6-1.1,0.9-2,0.9c-0.8,0-1.4-0.1-1.8-0.4v-7.5h1.2
		v2.4c0.3-0.1,0.7-0.2,1.1-0.2c0.7,0,1.2,0.3,1.6,0.9C-52.6,421.7-52.5,422.3-52.5,423.1 M-53.7,423.2c0-1.4-0.4-2-1.2-2
		c-0.3,0-0.5,0.1-0.7,0.2v3.9c0.2,0.1,0.4,0.1,0.7,0.1C-54.2,425.3-53.7,424.6-53.7,423.2"/>
	<path id="XMLID_7_" class="st0" d="M-50,418.9c0,0.2-0.1,0.3-0.2,0.5c-0.1,0.1-0.3,0.2-0.5,0.2c-0.2,0-0.3-0.1-0.5-0.2
		c-0.1-0.1-0.2-0.3-0.2-0.5s0.1-0.3,0.2-0.5c0.1-0.1,0.3-0.2,0.5-0.2c0.2,0,0.3,0.1,0.5,0.2C-50.1,418.6-50,418.7-50,418.9
		 M-50.1,426h-1.2v-5.5h1.2V426z"/>
	<path id="XMLID_4_" class="st0" d="M-44.7,425.7c-0.5,0.3-1.2,0.4-2,0.4c-1.5,0-2.2-0.6-2.2-1.7c0-0.7,0.3-1.2,1-1.6
		c0.5-0.2,1.1-0.3,2-0.5v-0.3c0-0.6-0.4-0.9-1.1-0.9c-0.5,0-0.9,0.1-1.4,0.3l-0.3-0.7c0.6-0.3,1.2-0.4,1.9-0.4c1.4,0,2,0.7,2,1.9
		L-44.7,425.7L-44.7,425.7z M-45.9,425.2v-2.3c-0.6,0.1-1,0.2-1.3,0.3c-0.4,0.2-0.6,0.6-0.6,1.1c0,0.7,0.4,1,1.2,1
		C-46.4,425.4-46.1,425.3-45.9,425.2"/>
</g>
<line class="st1" x1="-28" y1="388.7" x2="-28" y2="417.2"/>
<g>
	<path class="st0" d="M-2.8,395.3l1.2,0.3c-0.3,1-0.7,1.8-1.4,2.3s-1.5,0.8-2.5,0.8c-1,0-1.8-0.2-2.5-0.6c-0.6-0.4-1.1-1-1.4-1.8
		c-0.3-0.8-0.5-1.6-0.5-2.5c0-1,0.2-1.8,0.6-2.5s0.9-1.3,1.6-1.7c0.7-0.4,1.4-0.6,2.3-0.6c0.9,0,1.7,0.2,2.4,0.7
		c0.6,0.5,1.1,1.1,1.3,2l-1.2,0.3c-0.2-0.7-0.5-1.2-0.9-1.5s-0.9-0.5-1.6-0.5c-0.7,0-1.3,0.2-1.8,0.5c-0.5,0.3-0.8,0.8-1,1.4
		s-0.3,1.2-0.3,1.8c0,0.8,0.1,1.5,0.3,2.1c0.2,0.6,0.6,1,1.1,1.3c0.5,0.3,1,0.4,1.6,0.4c0.7,0,1.3-0.2,1.8-0.6S-3,396.1-2.8,395.3z"
		/>
	<path class="st0" d="M4.4,396.4l1.2,0.1c-0.2,0.7-0.5,1.2-1,1.6s-1.2,0.6-1.9,0.6c-1,0-1.8-0.3-2.4-0.9c-0.6-0.6-0.9-1.5-0.9-2.6
		c0-1.1,0.3-2,0.9-2.7s1.3-0.9,2.3-0.9c0.9,0,1.6,0.3,2.2,0.9s0.9,1.5,0.9,2.6c0,0.1,0,0.2,0,0.3H0.6c0,0.7,0.3,1.3,0.6,1.7
		c0.4,0.4,0.8,0.6,1.4,0.6c0.4,0,0.8-0.1,1.1-0.3C4,397.3,4.3,396.9,4.4,396.4z M0.7,394.6h3.8c-0.1-0.6-0.2-1-0.4-1.3
		c-0.4-0.4-0.8-0.7-1.4-0.7c-0.5,0-1,0.2-1.3,0.5S0.7,394,0.7,394.6z"/>
	<path class="st0" d="M7.1,398.6v-6.8h1v1c0.5-0.7,1.2-1.1,2.2-1.1c0.4,0,0.8,0.1,1.1,0.2c0.3,0.1,0.6,0.3,0.8,0.6
		c0.2,0.2,0.3,0.5,0.4,0.8c0,0.2,0.1,0.6,0.1,1.1v4.2h-1.1v-4.1c0-0.5,0-0.8-0.1-1c-0.1-0.2-0.2-0.4-0.5-0.6s-0.5-0.2-0.8-0.2
		c-0.5,0-0.9,0.2-1.3,0.5s-0.5,0.9-0.5,1.8v3.7H7.1z"/>
	<path class="st0" d="M16.8,397.6l0.2,1c-0.3,0.1-0.6,0.1-0.9,0.1c-0.4,0-0.7-0.1-1-0.2c-0.2-0.1-0.4-0.3-0.5-0.5
		c-0.1-0.2-0.1-0.7-0.1-1.4v-3.9h-0.8v-0.9h0.8v-1.7l1.1-0.7v2.4h1.2v0.9h-1.2v4c0,0.3,0,0.5,0.1,0.6c0,0.1,0.1,0.2,0.2,0.2
		c0.1,0.1,0.2,0.1,0.4,0.1C16.5,397.6,16.6,397.6,16.8,397.6z"/>
	<path class="st0" d="M17.9,398.6v-6.8h1v1c0.3-0.5,0.5-0.8,0.7-1c0.2-0.2,0.5-0.2,0.7-0.2c0.4,0,0.8,0.1,1.2,0.4l-0.4,1.1
		c-0.3-0.2-0.6-0.2-0.8-0.2c-0.3,0-0.5,0.1-0.7,0.2s-0.3,0.4-0.4,0.6c-0.1,0.4-0.2,0.9-0.2,1.3v3.5H17.9z"/>
	<path class="st0" d="M21.9,395.2c0-1.3,0.3-2.2,1-2.8c0.6-0.5,1.3-0.8,2.1-0.8c0.9,0,1.7,0.3,2.3,0.9c0.6,0.6,0.9,1.5,0.9,2.5
		c0,0.9-0.1,1.6-0.4,2.1c-0.3,0.5-0.6,0.9-1.1,1.2c-0.5,0.3-1,0.4-1.6,0.4c-0.9,0-1.7-0.3-2.3-0.9C22.2,397.3,21.9,396.4,21.9,395.2
		z M23.1,395.2c0,0.9,0.2,1.5,0.6,1.9c0.4,0.4,0.9,0.6,1.4,0.6c0.6,0,1-0.2,1.4-0.7c0.4-0.4,0.6-1.1,0.6-2c0-0.8-0.2-1.5-0.6-1.9
		c-0.4-0.4-0.9-0.6-1.4-0.6c-0.6,0-1.1,0.2-1.4,0.6C23.2,393.7,23.1,394.4,23.1,395.2z"/>
	<path class="st0" d="M37.6,398.6v-0.9c-0.4,0.7-1.1,1-1.9,1c-0.5,0-1-0.1-1.5-0.4c-0.5-0.3-0.8-0.7-1.1-1.2
		c-0.2-0.5-0.4-1.1-0.4-1.8c0-0.7,0.1-1.3,0.3-1.8c0.2-0.6,0.6-1,1-1.3s1-0.4,1.5-0.4c0.4,0,0.8,0.1,1.1,0.3
		c0.3,0.2,0.6,0.4,0.8,0.7v-3.4h1.1v9.4H37.6z M34,395.2c0,0.9,0.2,1.5,0.5,1.9c0.4,0.4,0.8,0.6,1.3,0.6c0.5,0,0.9-0.2,1.3-0.6
		c0.4-0.4,0.5-1,0.5-1.9c0-0.9-0.2-1.6-0.5-2c-0.4-0.4-0.8-0.7-1.3-0.7c-0.5,0-0.9,0.2-1.3,0.6C34.1,393.7,34,394.3,34,395.2z"/>
	<path class="st0" d="M45.1,396.4l1.2,0.1c-0.2,0.7-0.5,1.2-1,1.6s-1.2,0.6-1.9,0.6c-1,0-1.8-0.3-2.4-0.9c-0.6-0.6-0.9-1.5-0.9-2.6
		c0-1.1,0.3-2,0.9-2.7s1.3-0.9,2.3-0.9c0.9,0,1.6,0.3,2.2,0.9s0.9,1.5,0.9,2.6c0,0.1,0,0.2,0,0.3h-5.1c0,0.7,0.3,1.3,0.6,1.7
		c0.4,0.4,0.8,0.6,1.4,0.6c0.4,0,0.8-0.1,1.1-0.3C44.7,397.3,44.9,396.9,45.1,396.4z M41.3,394.6h3.8c-0.1-0.6-0.2-1-0.4-1.3
		c-0.4-0.4-0.8-0.7-1.4-0.7c-0.5,0-1,0.2-1.3,0.5S41.4,394,41.3,394.6z"/>
	<path class="st0" d="M51.5,398.6v-9.4h3.2c0.7,0,1.3,0,1.7,0.1c0.5,0.1,1,0.3,1.4,0.7c0.5,0.4,0.9,0.9,1.1,1.6
		c0.2,0.6,0.4,1.4,0.4,2.2c0,0.7-0.1,1.3-0.2,1.9c-0.2,0.5-0.4,1-0.6,1.4c-0.3,0.4-0.5,0.6-0.9,0.8c-0.3,0.2-0.7,0.4-1.1,0.5
		c-0.4,0.1-0.9,0.2-1.5,0.2H51.5z M52.7,397.5h2c0.6,0,1.1-0.1,1.5-0.2s0.6-0.3,0.8-0.5c0.3-0.3,0.5-0.7,0.7-1.2s0.2-1.1,0.2-1.8
		c0-1-0.2-1.7-0.5-2.3c-0.3-0.5-0.7-0.9-1.2-1.1c-0.3-0.1-0.9-0.2-1.6-0.2h-2V397.5z"/>
	<path class="st0" d="M65.2,397.8c-0.4,0.4-0.8,0.6-1.2,0.8c-0.4,0.1-0.8,0.2-1.3,0.2c-0.7,0-1.3-0.2-1.7-0.5
		c-0.4-0.4-0.6-0.8-0.6-1.4c0-0.3,0.1-0.6,0.2-0.9c0.2-0.3,0.3-0.5,0.6-0.7c0.2-0.2,0.5-0.3,0.8-0.4c0.2-0.1,0.6-0.1,1-0.2
		c0.9-0.1,1.6-0.2,2-0.4c0-0.2,0-0.3,0-0.3c0-0.5-0.1-0.8-0.3-1c-0.3-0.3-0.7-0.4-1.3-0.4c-0.5,0-0.9,0.1-1.2,0.3
		c-0.3,0.2-0.4,0.5-0.6,1l-1.1-0.2c0.1-0.5,0.3-0.9,0.5-1.2c0.2-0.3,0.6-0.5,1-0.7c0.4-0.2,1-0.2,1.5-0.2c0.6,0,1,0.1,1.4,0.2
		c0.4,0.1,0.6,0.3,0.8,0.5c0.2,0.2,0.3,0.5,0.4,0.8c0,0.2,0.1,0.5,0.1,1.1v1.5c0,1.1,0,1.7,0.1,2c0,0.3,0.1,0.6,0.3,0.8h-1.2
		C65.3,398.4,65.3,398.1,65.2,397.8z M65.1,395.2c-0.4,0.2-1,0.3-1.9,0.4c-0.5,0.1-0.8,0.1-1,0.2c-0.2,0.1-0.3,0.2-0.5,0.4
		s-0.2,0.3-0.2,0.5c0,0.3,0.1,0.6,0.3,0.8c0.2,0.2,0.6,0.3,1,0.3c0.4,0,0.8-0.1,1.2-0.3c0.3-0.2,0.6-0.5,0.8-0.8
		c0.1-0.3,0.2-0.6,0.2-1.1V395.2z"/>
	<path class="st0" d="M70.6,397.6l0.2,1c-0.3,0.1-0.6,0.1-0.9,0.1c-0.4,0-0.7-0.1-1-0.2c-0.2-0.1-0.4-0.3-0.5-0.5
		c-0.1-0.2-0.1-0.7-0.1-1.4v-3.9h-0.8v-0.9h0.8v-1.7l1.1-0.7v2.4h1.2v0.9h-1.2v4c0,0.3,0,0.5,0.1,0.6c0,0.1,0.1,0.2,0.2,0.2
		c0.1,0.1,0.2,0.1,0.4,0.1C70.2,397.6,70.4,397.6,70.6,397.6z"/>
	<path class="st0" d="M71.3,395.2c0-1.3,0.3-2.2,1-2.8c0.6-0.5,1.3-0.8,2.1-0.8c0.9,0,1.7,0.3,2.3,0.9c0.6,0.6,0.9,1.5,0.9,2.5
		c0,0.9-0.1,1.6-0.4,2.1c-0.3,0.5-0.6,0.9-1.1,1.2c-0.5,0.3-1,0.4-1.6,0.4c-0.9,0-1.7-0.3-2.3-0.9C71.6,397.3,71.3,396.4,71.3,395.2
		z M72.4,395.2c0,0.9,0.2,1.5,0.6,1.9c0.4,0.4,0.9,0.6,1.4,0.6c0.6,0,1-0.2,1.4-0.7c0.4-0.4,0.6-1.1,0.6-2c0-0.8-0.2-1.5-0.6-1.9
		c-0.4-0.4-0.9-0.6-1.4-0.6c-0.6,0-1.1,0.2-1.4,0.6C72.6,393.7,72.4,394.4,72.4,395.2z"/>
	<path class="st0" d="M78.5,396.6l1.1-0.2c0.1,0.5,0.2,0.8,0.5,1c0.3,0.2,0.7,0.4,1.2,0.4c0.5,0,0.9-0.1,1.2-0.3
		c0.3-0.2,0.4-0.5,0.4-0.8c0-0.3-0.1-0.5-0.3-0.6c-0.2-0.1-0.5-0.2-1.2-0.4c-0.8-0.2-1.4-0.4-1.8-0.6s-0.6-0.4-0.7-0.6
		c-0.2-0.3-0.3-0.6-0.3-0.9c0-0.3,0.1-0.6,0.2-0.8c0.1-0.3,0.3-0.5,0.6-0.6c0.2-0.1,0.4-0.2,0.7-0.3c0.3-0.1,0.6-0.1,1-0.1
		c0.5,0,1,0.1,1.4,0.2c0.4,0.2,0.7,0.4,0.9,0.6c0.2,0.3,0.3,0.6,0.4,1l-1.1,0.2c-0.1-0.3-0.2-0.6-0.4-0.8c-0.2-0.2-0.6-0.3-1-0.3
		c-0.5,0-0.9,0.1-1.1,0.3s-0.3,0.4-0.3,0.6c0,0.1,0,0.3,0.1,0.4c0.1,0.1,0.2,0.2,0.4,0.3c0.1,0,0.5,0.1,1,0.3
		c0.8,0.2,1.4,0.4,1.7,0.5s0.6,0.3,0.8,0.6s0.3,0.6,0.3,1c0,0.4-0.1,0.7-0.3,1.1c-0.2,0.3-0.5,0.6-1,0.8s-0.9,0.3-1.4,0.3
		c-0.9,0-1.6-0.2-2-0.5C78.9,397.9,78.6,397.3,78.5,396.6z"/>
	<path class="st0" d="M95.9,395.3l1.2,0.3c-0.3,1-0.7,1.8-1.4,2.3s-1.5,0.8-2.5,0.8c-1,0-1.8-0.2-2.5-0.6c-0.6-0.4-1.1-1-1.4-1.8
		c-0.3-0.8-0.5-1.6-0.5-2.5c0-1,0.2-1.8,0.6-2.5s0.9-1.3,1.6-1.7c0.7-0.4,1.4-0.6,2.3-0.6c0.9,0,1.7,0.2,2.4,0.7
		c0.6,0.5,1.1,1.1,1.3,2l-1.2,0.3c-0.2-0.7-0.5-1.2-0.9-1.5s-0.9-0.5-1.6-0.5c-0.7,0-1.3,0.2-1.8,0.5c-0.5,0.3-0.8,0.8-1,1.4
		s-0.3,1.2-0.3,1.8c0,0.8,0.1,1.5,0.3,2.1c0.2,0.6,0.6,1,1.1,1.3c0.5,0.3,1,0.4,1.6,0.4c0.7,0,1.3-0.2,1.8-0.6
		S95.8,396.1,95.9,395.3z"/>
	<path class="st0" d="M98.7,398.6v-9.4h6.8v1.1H100v2.9h5.2v1.1H100v3.2h5.7v1.1H98.7z"/>
	<path class="st0" d="M107.4,398.6v-9.4h3.2c0.7,0,1.3,0,1.7,0.1c0.5,0.1,1,0.3,1.4,0.7c0.5,0.4,0.9,0.9,1.1,1.6
		c0.2,0.6,0.4,1.4,0.4,2.2c0,0.7-0.1,1.3-0.2,1.9c-0.2,0.5-0.4,1-0.6,1.4c-0.3,0.4-0.5,0.6-0.9,0.8c-0.3,0.2-0.7,0.4-1.1,0.5
		c-0.4,0.1-0.9,0.2-1.5,0.2H107.4z M108.7,397.5h2c0.6,0,1.1-0.1,1.5-0.2s0.6-0.3,0.8-0.5c0.3-0.3,0.5-0.7,0.7-1.2s0.2-1.1,0.2-1.8
		c0-1-0.2-1.7-0.5-2.3c-0.3-0.5-0.7-0.9-1.2-1.1c-0.3-0.1-0.9-0.2-1.6-0.2h-2V397.5z"/>
	<path class="st0" d="M116.9,398.6v-9.4h6.8v1.1h-5.5v2.9h5.2v1.1h-5.2v3.2h5.7v1.1H116.9z"/>
	<path class="st0" d="M-9.4,414.3v-9.4h6.3v1.1h-5.1v2.9h4.4v1.1h-4.4v4.2H-9.4z"/>
	<path class="st0" d="M2.8,413.5c-0.4,0.4-0.8,0.6-1.2,0.8c-0.4,0.1-0.8,0.2-1.3,0.2c-0.7,0-1.3-0.2-1.7-0.5
		c-0.4-0.4-0.6-0.8-0.6-1.4c0-0.3,0.1-0.6,0.2-0.9c0.2-0.3,0.3-0.5,0.6-0.7c0.2-0.2,0.5-0.3,0.8-0.4c0.2-0.1,0.6-0.1,1-0.2
		c0.9-0.1,1.6-0.2,2-0.4c0-0.2,0-0.3,0-0.3c0-0.5-0.1-0.8-0.3-1c-0.3-0.3-0.7-0.4-1.3-0.4c-0.5,0-0.9,0.1-1.2,0.3
		c-0.3,0.2-0.4,0.5-0.6,1l-1.1-0.2c0.1-0.5,0.3-0.9,0.5-1.2c0.2-0.3,0.6-0.5,1-0.7c0.4-0.2,1-0.2,1.5-0.2c0.6,0,1,0.1,1.4,0.2
		c0.4,0.1,0.6,0.3,0.8,0.5c0.2,0.2,0.3,0.5,0.4,0.8c0,0.2,0.1,0.5,0.1,1.1v1.5c0,1.1,0,1.7,0.1,2c0,0.3,0.1,0.6,0.3,0.8H3
		C2.9,414.1,2.8,413.8,2.8,413.5z M2.7,410.9c-0.4,0.2-1,0.3-1.9,0.4c-0.5,0.1-0.8,0.1-1,0.2c-0.2,0.1-0.3,0.2-0.5,0.4
		s-0.2,0.3-0.2,0.5c0,0.3,0.1,0.6,0.3,0.8c0.2,0.2,0.6,0.3,1,0.3c0.4,0,0.8-0.1,1.2-0.3c0.3-0.2,0.6-0.5,0.8-0.8
		c0.1-0.3,0.2-0.6,0.2-1.1V410.9z"/>
	<path class="st0" d="M10,411.8l1.1,0.1c-0.1,0.8-0.4,1.4-0.9,1.8c-0.5,0.4-1.1,0.7-1.9,0.7c-0.9,0-1.7-0.3-2.2-0.9
		s-0.8-1.5-0.8-2.6c0-0.7,0.1-1.4,0.4-1.9c0.2-0.5,0.6-1,1.1-1.2s1-0.4,1.6-0.4c0.7,0,1.3,0.2,1.8,0.6s0.8,0.9,0.9,1.6l-1.1,0.2
		c-0.1-0.5-0.3-0.8-0.6-1c-0.3-0.2-0.6-0.3-1-0.3c-0.6,0-1,0.2-1.4,0.6s-0.5,1.1-0.5,2c0,0.9,0.2,1.6,0.5,2c0.3,0.4,0.8,0.6,1.4,0.6
		c0.5,0,0.8-0.1,1.1-0.4C9.8,412.8,9.9,412.4,10,411.8z"/>
	<path class="st0" d="M16.6,414.3v-1c-0.5,0.8-1.2,1.1-2.1,1.1c-0.4,0-0.8-0.1-1.1-0.2c-0.3-0.2-0.6-0.3-0.8-0.6s-0.3-0.5-0.4-0.9
		c0-0.2-0.1-0.6-0.1-1.1v-4.2h1.1v3.8c0,0.6,0,1,0.1,1.2c0.1,0.3,0.2,0.5,0.5,0.7c0.2,0.2,0.5,0.3,0.9,0.3s0.7-0.1,1-0.3
		c0.3-0.2,0.5-0.4,0.6-0.7c0.1-0.3,0.2-0.7,0.2-1.3v-3.6h1.1v6.8H16.6z"/>
	<path class="st0" d="M19.4,414.3v-9.4h1.1v9.4H19.4z"/>
	<path class="st0" d="M24.8,413.3l0.2,1c-0.3,0.1-0.6,0.1-0.9,0.1c-0.4,0-0.7-0.1-1-0.2c-0.2-0.1-0.4-0.3-0.5-0.5
		c-0.1-0.2-0.1-0.7-0.1-1.4v-3.9h-0.8v-0.9h0.8v-1.7l1.1-0.7v2.4h1.2v0.9h-1.2v4c0,0.3,0,0.5,0.1,0.6c0,0.1,0.1,0.2,0.2,0.2
		c0.1,0.1,0.2,0.1,0.4,0.1C24.4,413.3,24.6,413.3,24.8,413.3z"/>
	<path class="st0" d="M30.4,413.5c-0.4,0.4-0.8,0.6-1.2,0.8c-0.4,0.1-0.8,0.2-1.3,0.2c-0.7,0-1.3-0.2-1.7-0.5
		c-0.4-0.4-0.6-0.8-0.6-1.4c0-0.3,0.1-0.6,0.2-0.9c0.2-0.3,0.3-0.5,0.6-0.7c0.2-0.2,0.5-0.3,0.8-0.4c0.2-0.1,0.6-0.1,1-0.2
		c0.9-0.1,1.6-0.2,2-0.4c0-0.2,0-0.3,0-0.3c0-0.5-0.1-0.8-0.3-1c-0.3-0.3-0.7-0.4-1.3-0.4c-0.5,0-0.9,0.1-1.2,0.3
		c-0.3,0.2-0.4,0.5-0.6,1l-1.1-0.2c0.1-0.5,0.3-0.9,0.5-1.2c0.2-0.3,0.6-0.5,1-0.7c0.4-0.2,1-0.2,1.5-0.2c0.6,0,1,0.1,1.4,0.2
		c0.4,0.1,0.6,0.3,0.8,0.5c0.2,0.2,0.3,0.5,0.4,0.8c0,0.2,0.1,0.5,0.1,1.1v1.5c0,1.1,0,1.7,0.1,2c0,0.3,0.1,0.6,0.3,0.8h-1.2
		C30.5,414.1,30.4,413.8,30.4,413.5z M30.3,410.9c-0.4,0.2-1,0.3-1.9,0.4c-0.5,0.1-0.8,0.1-1,0.2c-0.2,0.1-0.3,0.2-0.5,0.4
		s-0.2,0.3-0.2,0.5c0,0.3,0.1,0.6,0.3,0.8c0.2,0.2,0.6,0.3,1,0.3c0.4,0,0.8-0.1,1.2-0.3c0.3-0.2,0.6-0.5,0.8-0.8
		c0.1-0.3,0.2-0.6,0.2-1.1V410.9z"/>
	<path class="st0" d="M37.6,414.3v-0.9c-0.4,0.7-1.1,1-1.9,1c-0.5,0-1-0.1-1.5-0.4c-0.5-0.3-0.8-0.7-1.1-1.2
		c-0.2-0.5-0.4-1.1-0.4-1.8c0-0.7,0.1-1.3,0.3-1.8c0.2-0.6,0.6-1,1-1.3s1-0.4,1.5-0.4c0.4,0,0.8,0.1,1.1,0.3
		c0.3,0.2,0.6,0.4,0.8,0.7v-3.4h1.1v9.4H37.6z M34,410.9c0,0.9,0.2,1.5,0.5,1.9c0.4,0.4,0.8,0.6,1.3,0.6c0.5,0,0.9-0.2,1.3-0.6
		c0.4-0.4,0.5-1,0.5-1.9c0-0.9-0.2-1.6-0.5-2c-0.4-0.4-0.8-0.7-1.3-0.7c-0.5,0-0.9,0.2-1.3,0.6C34.1,409.4,34,410,34,410.9z"/>
	<path class="st0" d="M48.5,414.3v-0.9c-0.4,0.7-1.1,1-1.9,1c-0.5,0-1-0.1-1.5-0.4c-0.5-0.3-0.8-0.7-1.1-1.2
		c-0.2-0.5-0.4-1.1-0.4-1.8c0-0.7,0.1-1.3,0.3-1.8c0.2-0.6,0.6-1,1-1.3s1-0.4,1.5-0.4c0.4,0,0.8,0.1,1.1,0.3
		c0.3,0.2,0.6,0.4,0.8,0.7v-3.4h1.1v9.4H48.5z M44.9,410.9c0,0.9,0.2,1.5,0.5,1.9c0.4,0.4,0.8,0.6,1.3,0.6c0.5,0,0.9-0.2,1.3-0.6
		c0.4-0.4,0.5-1,0.5-1.9c0-0.9-0.2-1.6-0.5-2c-0.4-0.4-0.8-0.7-1.3-0.7c-0.5,0-0.9,0.2-1.3,0.6C45,409.4,44.9,410,44.9,410.9z"/>
	<path class="st0" d="M56,412.1l1.2,0.1c-0.2,0.7-0.5,1.2-1,1.6s-1.2,0.6-1.9,0.6c-1,0-1.8-0.3-2.4-0.9c-0.6-0.6-0.9-1.5-0.9-2.6
		c0-1.1,0.3-2,0.9-2.7s1.3-0.9,2.3-0.9c0.9,0,1.6,0.3,2.2,0.9s0.9,1.5,0.9,2.6c0,0.1,0,0.2,0,0.3h-5.1c0,0.7,0.3,1.3,0.6,1.7
		c0.4,0.4,0.8,0.6,1.4,0.6c0.4,0,0.8-0.1,1.1-0.3C55.6,413,55.8,412.6,56,412.1z M52.2,410.3H56c-0.1-0.6-0.2-1-0.4-1.3
		c-0.4-0.4-0.8-0.7-1.4-0.7c-0.5,0-1,0.2-1.3,0.5S52.3,409.7,52.2,410.3z"/>
	<path class="st0" d="M62.4,414.3v-9.4h6.8v1.1h-5.5v2.9h5.2v1.1h-5.2v3.2h5.7v1.1H62.4z"/>
	<path class="st0" d="M75.4,411.8l1.1,0.1c-0.1,0.8-0.4,1.4-0.9,1.8c-0.5,0.4-1.1,0.7-1.9,0.7c-0.9,0-1.7-0.3-2.2-0.9
		s-0.8-1.5-0.8-2.6c0-0.7,0.1-1.4,0.4-1.9c0.2-0.5,0.6-1,1.1-1.2s1-0.4,1.6-0.4c0.7,0,1.3,0.2,1.8,0.6s0.8,0.9,0.9,1.6l-1.1,0.2
		c-0.1-0.5-0.3-0.8-0.6-1c-0.3-0.2-0.6-0.3-1-0.3c-0.6,0-1,0.2-1.4,0.6s-0.5,1.1-0.5,2c0,0.9,0.2,1.6,0.5,2c0.3,0.4,0.8,0.6,1.4,0.6
		c0.5,0,0.8-0.1,1.1-0.4C75.1,412.8,75.3,412.4,75.4,411.8z"/>
	<path class="st0" d="M77.1,410.9c0-1.3,0.3-2.2,1-2.8c0.6-0.5,1.3-0.8,2.1-0.8c0.9,0,1.7,0.3,2.3,0.9c0.6,0.6,0.9,1.5,0.9,2.5
		c0,0.9-0.1,1.6-0.4,2.1c-0.3,0.5-0.6,0.9-1.1,1.2c-0.5,0.3-1,0.4-1.6,0.4c-0.9,0-1.7-0.3-2.3-0.9C77.4,412.9,77.1,412.1,77.1,410.9
		z M78.3,410.9c0,0.9,0.2,1.5,0.6,1.9c0.4,0.4,0.9,0.6,1.4,0.6c0.6,0,1-0.2,1.4-0.7c0.4-0.4,0.6-1.1,0.6-2c0-0.8-0.2-1.5-0.6-1.9
		c-0.4-0.4-0.9-0.6-1.4-0.6c-0.6,0-1.1,0.2-1.4,0.6C78.4,409.4,78.3,410,78.3,410.9z"/>
	<path class="st0" d="M84.8,414.3v-6.8h1v1c0.5-0.7,1.2-1.1,2.2-1.1c0.4,0,0.8,0.1,1.1,0.2c0.3,0.1,0.6,0.3,0.8,0.6
		c0.2,0.2,0.3,0.5,0.4,0.8c0,0.2,0.1,0.6,0.1,1.1v4.2h-1.1v-4.1c0-0.5,0-0.8-0.1-1c-0.1-0.2-0.2-0.4-0.5-0.6s-0.5-0.2-0.8-0.2
		c-0.5,0-0.9,0.2-1.3,0.5s-0.5,0.9-0.5,1.8v3.7H84.8z"/>
	<path class="st0" d="M91.6,410.9c0-1.3,0.3-2.2,1-2.8c0.6-0.5,1.3-0.8,2.1-0.8c0.9,0,1.7,0.3,2.3,0.9c0.6,0.6,0.9,1.5,0.9,2.5
		c0,0.9-0.1,1.6-0.4,2.1c-0.3,0.5-0.6,0.9-1.1,1.2c-0.5,0.3-1,0.4-1.6,0.4c-0.9,0-1.7-0.3-2.3-0.9C91.9,412.9,91.6,412.1,91.6,410.9
		z M92.8,410.9c0,0.9,0.2,1.5,0.6,1.9c0.4,0.4,0.9,0.6,1.4,0.6c0.6,0,1-0.2,1.4-0.7c0.4-0.4,0.6-1.1,0.6-2c0-0.8-0.2-1.5-0.6-1.9
		c-0.4-0.4-0.9-0.6-1.4-0.6c-0.6,0-1.1,0.2-1.4,0.6C93,409.4,92.8,410,92.8,410.9z"/>
	<path class="st0" d="M99.3,414.3v-6.8h1v1c0.2-0.3,0.5-0.6,0.8-0.8c0.4-0.2,0.8-0.3,1.2-0.3c0.5,0,0.9,0.1,1.2,0.3
		c0.3,0.2,0.5,0.5,0.7,0.9c0.5-0.8,1.2-1.2,2.1-1.2c0.7,0,1.2,0.2,1.5,0.6s0.5,0.9,0.5,1.7v4.7h-1.1V410c0-0.5,0-0.8-0.1-1
		c-0.1-0.2-0.2-0.4-0.4-0.5c-0.2-0.1-0.4-0.2-0.7-0.2c-0.5,0-0.9,0.2-1.2,0.5c-0.3,0.3-0.5,0.8-0.5,1.5v3.9h-1.1v-4.4
		c0-0.5-0.1-0.9-0.3-1.1c-0.2-0.3-0.5-0.4-0.9-0.4c-0.3,0-0.6,0.1-0.9,0.3s-0.5,0.4-0.6,0.7c-0.1,0.3-0.2,0.8-0.2,1.4v3.5H99.3z"/>
	<path class="st0" d="M110.5,406.7l0.8-1.8h1.5l-1.4,1.8H110.5z M110.6,414.3v-6.8h1.1v6.8H110.6z"/>
	<path class="st0" d="M118.2,413.5c-0.4,0.4-0.8,0.6-1.2,0.8c-0.4,0.1-0.8,0.2-1.3,0.2c-0.7,0-1.3-0.2-1.7-0.5
		c-0.4-0.4-0.6-0.8-0.6-1.4c0-0.3,0.1-0.6,0.2-0.9c0.2-0.3,0.3-0.5,0.6-0.7c0.2-0.2,0.5-0.3,0.8-0.4c0.2-0.1,0.6-0.1,1-0.2
		c0.9-0.1,1.6-0.2,2-0.4c0-0.2,0-0.3,0-0.3c0-0.5-0.1-0.8-0.3-1c-0.3-0.3-0.7-0.4-1.3-0.4c-0.5,0-0.9,0.1-1.2,0.3
		c-0.3,0.2-0.4,0.5-0.6,1l-1.1-0.2c0.1-0.5,0.3-0.9,0.5-1.2c0.2-0.3,0.6-0.5,1-0.7c0.4-0.2,1-0.2,1.5-0.2c0.6,0,1,0.1,1.4,0.2
		c0.4,0.1,0.6,0.3,0.8,0.5c0.2,0.2,0.3,0.5,0.4,0.8c0,0.2,0.1,0.5,0.1,1.1v1.5c0,1.1,0,1.7,0.1,2c0,0.3,0.1,0.6,0.3,0.8h-1.2
		C118.3,414.1,118.3,413.8,118.2,413.5z M118.1,410.9c-0.4,0.2-1,0.3-1.9,0.4c-0.5,0.1-0.8,0.1-1,0.2c-0.2,0.1-0.3,0.2-0.5,0.4
		s-0.2,0.3-0.2,0.5c0,0.3,0.1,0.6,0.3,0.8c0.2,0.2,0.6,0.3,1,0.3c0.4,0,0.8-0.1,1.2-0.3c0.3-0.2,0.6-0.5,0.8-0.8
		c0.1-0.3,0.2-0.6,0.2-1.1V410.9z"/>
</g>
</svg>
